<svg id="visual" viewBox="0 0 1920 1000" width="1920" height="1000" xmlns="http://www.w3.org/2000/svg" xmlns:xlink="http://www.w3.org/1999/xlink" version="1.1"><rect x="0" y="0" width="1920" height="1000" fill="#ffffff"></rect><path d="M0 701L64 728.5C128 756 256 811 384 824.7C512 838.3 640 810.7 768 803.2C896 795.7 1024 808.3 1152 799.3C1280 790.3 1408 759.7 1536 740.3C1664 721 1792 713 1856 709L1920 705L1920 1001L1856 1001C1792 1001 1664 1001 1536 1001C1408 1001 1280 1001 1152 1001C1024 1001 896 1001 768 1001C640 1001 512 1001 384 1001C256 1001 128 1001 64 1001L0 1001Z" fill="#1f6536" stroke-linecap="round" stroke-linejoin="miter"></path></svg>