<svg id="visual" viewBox="0 0 1920 1000" width="1920" height="1000" xmlns="http://www.w3.org/2000/svg" xmlns:xlink="http://www.w3.org/1999/xlink" version="1.1"><path d="M0 794L45.7 784.5C91.3 775 182.7 756 274.2 740.8C365.7 725.7 457.3 714.3 548.8 720.5C640.3 726.7 731.7 750.3 823 761.2C914.3 772 1005.7 770 1097 769.7C1188.3 769.3 1279.7 770.7 1371.2 774.5C1462.7 778.3 1554.3 784.7 1645.8 777.8C1737.3 771 1828.7 751 1874.3 741L1920 731L1920 1001L1874.3 1001C1828.7 1001 1737.3 1001 1645.8 1001C1554.3 1001 1462.7 1001 1371.2 1001C1279.7 1001 1188.3 1001 1097 1001C1005.7 1001 914.3 1001 823 1001C731.7 1001 640.3 1001 548.8 1001C457.3 1001 365.7 1001 274.2 1001C182.7 1001 91.3 1001 45.7 1001L0 1001Z" fill="#a81d2e" stroke-linecap="round" stroke-linejoin="miter"></path></svg>